<svg width="160" height="39" viewBox="0 0 160 39" fill="none" xmlns="http://www.w3.org/2000/svg">
<g clip-path="url(#clip0_257153_366)">
<path d="M12.8741 8.01019C12.7045 9.83582 19.5247 10.4482 22.598 10.7246C25.6713 11.0011 32.3521 11.602 32.5217 9.77641C32.6912 7.95078 29.8387 4.37265 25.0836 2.49218C14.5304 -1.68231 5.91683 2.84406 3.93535 3.52724C3.15948 3.79685 12.9322 7.40013 12.8741 8.01019Z" fill="#CD3C32"/>
<path d="M0.0114908 2.99967C-0.127887 4.50998 1.00339 5.84893 2.54119 5.98602C4.07899 6.12311 5.43792 5.01037 5.5773 3.50006C5.71667 1.98746 4.58539 0.650801 3.04992 0.511423C1.51212 0.374329 0.153191 1.48707 0.0114908 2.99967Z" fill="white"/>
<path d="M9.8745 18.4707C9.41223 27.7771 15.4101 29.2371 22.2396 29.2371C29.0691 29.2371 34.6047 25.7252 34.6047 18.4707C34.6047 11.2162 29.0552 8.3418 22.228 8.3418C15.3962 8.3418 10.3228 9.46139 9.8745 18.4707Z" fill="white"/>
<path d="M11.2991 19.6406C10.8972 28.9469 16.096 30.407 22.0102 30.407C27.9268 30.407 32.7214 26.8951 32.7214 19.6406C32.7214 12.3883 27.9268 8.87646 22.0102 8.87646C16.0937 8.87646 11.687 10.6313 11.2991 19.6406Z" fill="#F8C1A5"/>
<path d="M14.1445 21.7151C14.1445 22.4188 15.0946 22.9878 16.2653 22.9878C17.4361 22.9878 18.3862 22.4188 18.3862 21.7151C18.3862 21.0113 17.4361 20.4424 16.2653 20.4424C15.0946 20.4424 14.1445 21.0113 14.1445 21.7151Z" fill="#FBE1DB"/>
<path d="M25.0057 21.7151C25.0057 22.4188 25.9558 22.9878 27.1266 22.9878C28.2974 22.9878 29.2475 22.4188 29.2475 21.7151C29.2475 21.0113 28.2974 20.4424 27.1266 20.4424C25.9558 20.4424 25.0057 21.0113 25.0057 21.7151Z" fill="#FBE1DB"/>
<path d="M9.02039 20.1752C9.02039 22.1562 10.0402 22.4669 11.2992 22.4669C12.5582 22.4669 13.578 21.7198 13.578 20.1752C13.578 18.6329 12.5582 17.8857 11.2992 17.8857C10.0402 17.8857 9.02039 18.1942 9.02039 20.1752Z" fill="#F8C1A5"/>
<path d="M30.4424 20.1752C30.4424 22.1562 31.4622 22.4669 32.7212 22.4669C33.9802 22.4669 35 21.7198 35 20.1752C35 18.6329 33.9802 17.8857 32.7212 17.8857C31.4622 17.8857 30.4424 18.1942 30.4424 20.1752Z" fill="#F8C1A5"/>
<path d="M15.9488 22.2314C17.468 21.8018 19.5354 21.7356 21.6145 21.7173V25.3982C21.1359 25.3366 20.7921 25.2977 20.4065 25.4165C17.6585 26.2665 16.7781 25.3525 15.2867 25.252C14.5898 25.204 13.2704 25.4279 13.2704 25.4279C13.2704 25.4279 13.577 22.9031 15.9488 22.2314Z" fill="#F0F8FD"/>
<path d="M28.23 22.2319C26.7108 21.8023 24.6434 21.7361 22.5643 21.7178V25.3987C23.0429 25.337 23.3867 25.2982 23.7723 25.417C26.5203 26.267 27.4007 25.353 28.8921 25.2525C29.589 25.2045 30.9084 25.4284 30.9084 25.4284C30.9084 25.4284 30.5994 22.9036 28.23 22.2319Z" fill="#F0F8FD"/>
<path d="M22.0099 13.38C16.6671 13.38 12.2511 13.9124 12.7343 19.6406H11.2987C11.6866 10.1834 16.0956 8.3418 22.0099 8.3418C27.9264 8.3418 32.721 12.0273 32.721 19.6406H31.4782C31.8453 14.4859 26.3468 13.38 22.0099 13.38Z" fill="white"/>
<path d="M32.7205 19.6406C32.4858 23.63 34.5788 26.4679 34.6021 29.7947C34.6323 34.1702 31.7541 38.4978 22.0093 38.4978C11.7325 38.4978 8.81723 33.9829 9.01933 29.2349C9.15406 26.0566 11.2889 23.3741 11.2982 19.6406C11.2982 19.6406 12.6199 17.8081 12.7337 19.6406C12.9916 23.7945 17.3262 21.7153 21.9117 21.7153C26.8318 21.7153 30.818 22.988 31.4777 19.6406C31.6821 18.6078 32.7205 19.6406 32.7205 19.6406Z" fill="white"/>
<path d="M19.9452 24.6627C19.9452 25.5012 20.8256 26.1798 21.9127 26.1798C22.9999 26.1798 23.8803 25.5012 23.8803 24.6627C23.8803 23.8241 22.9999 23.1455 21.9127 23.1455C20.8256 23.1455 19.9452 23.8264 19.9452 24.6627Z" fill="#CD3C32"/>
<path d="M13.6288 24.8842C13.6288 24.8842 14.6764 24.4249 16.112 24.8088C17.3664 25.1424 18.9065 25.853 20.3026 25.4508C22.3979 24.8476 22.0867 22.8621 22.0867 22.8621C22.0867 22.8621 20.7672 21.4043 18.5163 21.4112C14.7461 21.4203 13.6288 24.8842 13.6288 24.8842Z" fill="white"/>
<path d="M30.3882 24.8842C30.3882 24.8842 29.3406 24.4249 27.905 24.8088C26.6506 25.1424 25.1105 25.853 23.7144 25.4508C21.6191 24.8476 21.928 22.8621 21.928 22.8621C21.928 22.8621 23.2474 21.4043 25.4984 21.4112C29.2732 21.4203 30.3882 24.8842 30.3882 24.8842Z" fill="white"/>
<path d="M19.2596 21.2947C19.2596 22.2932 20.4467 23.102 21.9125 23.102C23.3782 23.102 24.5653 22.2932 24.5653 21.2947C24.5653 20.2962 23.3782 19.4873 21.9125 19.4873C20.4467 19.4873 19.2596 20.2984 19.2596 21.2947Z" fill="#F2937B"/>
<path d="M10.2331 15.7355C10.535 16.2702 16.5236 14.4263 22.0105 14.3257C27.8318 14.2184 33.6833 16.3182 34.285 15.6373C35.4534 14.312 33.8924 10.1741 32.7216 9.27842C30.0061 7.19917 14.1449 7.70642 12.2285 8.87856C11.0624 9.58916 9.43629 14.3257 10.2331 15.7355Z" fill="white"/>
<path d="M10.4393 15.3929C11.566 14.9542 12.6531 14.3784 13.8053 14.006C15.285 13.5261 16.8112 13.3022 18.3629 13.1994C21.6871 12.9801 25.067 13.1149 28.3656 13.5764C29.9103 13.7935 31.4319 14.1111 32.9674 14.3715C33.5365 14.4675 34.1497 14.4195 34.6956 14.2253C34.6933 14.8057 34.5725 15.3084 34.2822 15.6351C33.6805 16.3183 27.829 14.2162 22.0076 14.3236C16.5208 14.4264 10.5322 16.268 10.2303 15.7333C10.1931 15.6648 10.1606 15.5871 10.1327 15.5049C10.2372 15.4706 10.3394 15.434 10.4393 15.3929Z" fill="#F0F8FD"/>
<path opacity="0.3" d="M20.2948 20.3352C20.2948 20.7191 21.0196 21.0276 21.9116 21.0276C22.8036 21.0276 23.5284 20.7168 23.5284 20.3352C23.5284 19.9514 22.8059 19.6406 21.9116 19.6406C21.0196 19.6406 20.2948 19.9514 20.2948 20.3352Z" fill="white"/>
<path d="M16.9257 18.3657C16.9257 18.9232 17.3856 19.3779 17.9547 19.3779C18.5215 19.3779 18.9838 18.9255 18.9838 18.3657C18.9838 17.8082 18.5239 17.3535 17.9547 17.3535C17.3879 17.3535 16.9257 17.8059 16.9257 18.3657Z" fill="#2F120C"/>
<path d="M25.9033 18.3657C25.9033 18.9232 26.3633 19.3779 26.9324 19.3779C27.5015 19.3779 27.9615 18.9255 27.9615 18.3657C27.9615 17.8082 27.5015 17.3535 26.9324 17.3535C26.3656 17.3535 25.9033 17.8059 25.9033 18.3657Z" fill="#2F120C"/>
<path d="M14.7244 16.8189C15.268 17.1251 17.0729 16.0169 19.0381 16.2842C19.9859 16.4122 19.5887 14.6642 19.0381 14.4906C17.3633 13.9559 15.5792 14.3329 14.7081 15.4525C13.9903 16.3733 14.1808 16.5127 14.7244 16.8189Z" fill="white"/>
<path d="M29.1343 16.5606C28.5907 16.8668 26.7858 15.7586 24.8205 16.0259C23.8728 16.1539 24.2723 14.4059 24.8205 14.2323C26.4954 13.6976 28.2794 14.0746 29.1505 15.1942C29.8707 16.115 29.6778 16.2544 29.1343 16.5606Z" fill="white"/>
</g>
<path d="M48.9439 27.5V11.036H60.7039V13.34H51.6319V18.212H59.8399V20.492H51.6319V27.5H48.9439ZM67.8321 27.788C66.5361 27.788 65.4481 27.556 64.5681 27.092C63.7041 26.612 63.0481 25.884 62.6001 24.908C62.1521 23.932 61.9281 22.692 61.9281 21.188C61.9281 19.668 62.1521 18.428 62.6001 17.468C63.0481 16.492 63.7121 15.772 64.5921 15.308C65.4721 14.828 66.5681 14.588 67.8801 14.588C69.0801 14.588 70.0801 14.82 70.8801 15.284C71.6961 15.732 72.3121 16.42 72.7281 17.348C73.1441 18.276 73.3521 19.444 73.3521 20.852V21.812H64.4961C64.5281 22.708 64.6641 23.46 64.9041 24.068C65.1441 24.66 65.5041 25.1 65.9841 25.388C66.4801 25.66 67.1041 25.796 67.8561 25.796C68.3201 25.796 68.7361 25.74 69.1041 25.628C69.4721 25.5 69.7841 25.324 70.0401 25.1C70.2961 24.86 70.4961 24.58 70.6401 24.26C70.7841 23.924 70.8561 23.548 70.8561 23.132H73.3041C73.3041 23.884 73.1761 24.548 72.9201 25.124C72.6641 25.7 72.2881 26.188 71.7921 26.588C71.3121 26.972 70.7361 27.268 70.0641 27.476C69.3921 27.684 68.6481 27.788 67.8321 27.788ZM64.5441 19.988H70.7361C70.7361 19.364 70.6641 18.844 70.5201 18.428C70.3921 17.996 70.2001 17.644 69.9441 17.372C69.6881 17.1 69.3841 16.908 69.0321 16.796C68.6801 16.668 68.2801 16.604 67.8321 16.604C67.1601 16.604 66.5841 16.724 66.1041 16.964C65.6401 17.204 65.2801 17.58 65.0241 18.092C64.7681 18.588 64.6081 19.22 64.5441 19.988ZM75.8891 27.5V10.148H78.3851V27.5H75.8891ZM81.6079 12.692V10.148H84.1039V12.692H81.6079ZM81.6079 27.5V14.876H84.1039V27.5H81.6079ZM86.3906 27.5V26.252L93.1106 16.94H86.8466V14.876H96.7106V16.1L89.9666 25.436H97.0466V27.5H86.3906ZM104.655 27.5V11.036H107.247L114.759 21.356C114.855 21.452 114.959 21.588 115.071 21.764C115.199 21.94 115.319 22.116 115.431 22.292C115.543 22.468 115.623 22.612 115.671 22.724H115.791C115.791 22.484 115.791 22.252 115.791 22.028C115.791 21.804 115.791 21.58 115.791 21.356V11.036H118.383V27.5H115.887L108.279 17.06C108.151 16.868 107.991 16.628 107.799 16.34C107.607 16.036 107.463 15.804 107.367 15.644H107.247C107.247 15.868 107.247 16.1 107.247 16.34C107.247 16.564 107.247 16.804 107.247 17.06V27.5H104.655ZM125.136 27.788C124.736 27.788 124.304 27.74 123.84 27.644C123.376 27.548 122.936 27.372 122.52 27.116C122.12 26.86 121.792 26.508 121.536 26.06C121.28 25.596 121.152 24.996 121.152 24.26C121.152 23.396 121.352 22.684 121.752 22.124C122.152 21.564 122.712 21.124 123.432 20.804C124.152 20.484 125.008 20.26 126 20.132C127.008 20.004 128.104 19.94 129.288 19.94V18.692C129.288 18.276 129.216 17.908 129.072 17.588C128.944 17.268 128.696 17.02 128.328 16.844C127.976 16.668 127.464 16.58 126.792 16.58C126.12 16.58 125.592 16.668 125.208 16.844C124.84 17.004 124.576 17.212 124.416 17.468C124.272 17.708 124.2 17.972 124.2 18.26V18.62H121.8C121.784 18.54 121.776 18.46 121.776 18.38C121.776 18.3 121.776 18.204 121.776 18.092C121.776 17.34 121.984 16.708 122.4 16.196C122.832 15.668 123.432 15.268 124.2 14.996C124.968 14.724 125.856 14.588 126.864 14.588C127.952 14.588 128.856 14.748 129.576 15.068C130.312 15.372 130.864 15.812 131.232 16.388C131.6 16.964 131.784 17.66 131.784 18.476V24.884C131.784 25.188 131.856 25.404 132 25.532C132.16 25.66 132.344 25.724 132.552 25.724H133.416V27.404C133.224 27.484 132.984 27.564 132.696 27.644C132.408 27.724 132.072 27.764 131.688 27.764C131.256 27.764 130.888 27.684 130.584 27.524C130.296 27.38 130.056 27.172 129.864 26.9C129.688 26.612 129.568 26.292 129.504 25.94H129.36C129.072 26.308 128.72 26.636 128.304 26.924C127.904 27.196 127.44 27.404 126.912 27.548C126.384 27.708 125.792 27.788 125.136 27.788ZM125.832 25.724C126.328 25.724 126.784 25.652 127.2 25.508C127.632 25.348 128 25.132 128.304 24.86C128.608 24.572 128.848 24.236 129.024 23.852C129.2 23.452 129.288 23.02 129.288 22.556V21.716C128.184 21.716 127.216 21.78 126.384 21.908C125.552 22.036 124.904 22.276 124.44 22.628C123.976 22.964 123.744 23.436 123.744 24.044C123.744 24.412 123.824 24.724 123.984 24.98C124.144 25.22 124.384 25.404 124.704 25.532C125.024 25.66 125.4 25.724 125.832 25.724ZM138.283 27.788C137.563 27.788 136.995 27.652 136.579 27.38C136.179 27.092 135.891 26.732 135.715 26.3C135.555 25.852 135.475 25.38 135.475 24.884V16.94H133.891V14.876H135.523L135.979 11.348H137.971V14.876H140.251V16.94H137.971V24.596C137.971 24.964 138.051 25.244 138.211 25.436C138.371 25.628 138.635 25.724 139.003 25.724H140.251V27.404C140.091 27.468 139.891 27.524 139.651 27.572C139.427 27.636 139.195 27.684 138.955 27.716C138.715 27.764 138.491 27.788 138.283 27.788ZM145.644 27.788C145.244 27.788 144.812 27.74 144.348 27.644C143.884 27.548 143.444 27.372 143.028 27.116C142.628 26.86 142.3 26.508 142.044 26.06C141.788 25.596 141.66 24.996 141.66 24.26C141.66 23.396 141.86 22.684 142.26 22.124C142.66 21.564 143.22 21.124 143.94 20.804C144.66 20.484 145.516 20.26 146.508 20.132C147.516 20.004 148.612 19.94 149.796 19.94V18.692C149.796 18.276 149.724 17.908 149.58 17.588C149.452 17.268 149.204 17.02 148.836 16.844C148.484 16.668 147.972 16.58 147.3 16.58C146.628 16.58 146.1 16.668 145.716 16.844C145.348 17.004 145.084 17.212 144.924 17.468C144.78 17.708 144.708 17.972 144.708 18.26V18.62H142.308C142.292 18.54 142.284 18.46 142.284 18.38C142.284 18.3 142.284 18.204 142.284 18.092C142.284 17.34 142.492 16.708 142.908 16.196C143.34 15.668 143.94 15.268 144.708 14.996C145.476 14.724 146.364 14.588 147.372 14.588C148.46 14.588 149.364 14.748 150.084 15.068C150.82 15.372 151.372 15.812 151.74 16.388C152.108 16.964 152.292 17.66 152.292 18.476V24.884C152.292 25.188 152.364 25.404 152.508 25.532C152.668 25.66 152.852 25.724 153.06 25.724H153.924V27.404C153.732 27.484 153.492 27.564 153.204 27.644C152.916 27.724 152.58 27.764 152.196 27.764C151.764 27.764 151.396 27.684 151.092 27.524C150.804 27.38 150.564 27.172 150.372 26.9C150.196 26.612 150.076 26.292 150.012 25.94H149.868C149.58 26.308 149.228 26.636 148.812 26.924C148.412 27.196 147.948 27.404 147.42 27.548C146.892 27.708 146.3 27.788 145.644 27.788ZM146.34 25.724C146.836 25.724 147.292 25.652 147.708 25.508C148.14 25.348 148.508 25.132 148.812 24.86C149.116 24.572 149.356 24.236 149.532 23.852C149.708 23.452 149.796 23.02 149.796 22.556V21.716C148.692 21.716 147.724 21.78 146.892 21.908C146.06 22.036 145.412 22.276 144.948 22.628C144.484 22.964 144.252 23.436 144.252 24.044C144.252 24.412 144.332 24.724 144.492 24.98C144.652 25.22 144.892 25.404 145.212 25.532C145.532 25.66 145.908 25.724 146.34 25.724ZM155.647 27.5V10.148H158.143V27.5H155.647Z" fill="#161212"/>
<defs>
<clipPath id="clip0_257153_366">
<rect width="35" height="38" fill="white" transform="translate(-0.00012207 0.5)"/>
</clipPath>
</defs>
</svg>
